<svg width="39" height="39" viewBox="0 0 39 39" fill="none" xmlns="http://www.w3.org/2000/svg">
<path d="M25.5333 33.5125V30.3208C25.5333 28.6279 24.8608 27.0042 23.6637 25.8071C22.4666 24.61 20.843 23.9375 19.15 23.9375H9.57498C7.88202 23.9375 6.25839 24.61 5.06129 25.8071C3.86418 27.0042 3.19165 28.6279 3.19165 30.3208V33.5125M25.5333 4.99177C26.9022 5.34664 28.1144 6.14598 28.9798 7.26434C29.8452 8.3827 30.3148 9.75675 30.3148 11.1708C30.3148 12.5849 29.8452 13.959 28.9798 15.0773C28.1144 16.1957 26.9022 16.995 25.5333 17.3499M35.1083 33.5125V30.3208C35.1073 28.9065 34.6365 27.5326 33.77 26.4147C32.9035 25.2969 31.6903 24.4985 30.3208 24.145M20.7458 11.1708C20.7458 14.6963 17.8879 17.5542 14.3625 17.5542C10.8371 17.5542 7.97915 14.6963 7.97915 11.1708C7.97915 7.64542 10.8371 4.78751 14.3625 4.78751C17.8879 4.78751 20.7458 7.64542 20.7458 11.1708Z" stroke="#9CCFD8" stroke-width="2" stroke-linecap="round" stroke-linejoin="round"/>
</svg>
