<svg xmlns="http://www.w3.org/2000/svg" width="83" height="108" viewBox="0 0 83 108" fill="none">
    <g clip-path="url(#clip0_333_444)">
        <path d="M63.2645 64.2564L71.0455 88.1493C71.0455 88.1493 84.6688 80.8057 87.0476 72.3673C89.6875 62.9453 79.2666 48.4745 79.2666 48.4745M63.2645 64.2564C69.1117 59.5427 74.4724 54.2557 79.2666 48.4745M63.2645 64.2564L44.2601 54.5894M44.2601 54.5894C44.6546 47.1641 45.7971 39.7975 47.6704 32.6016C50.3392 21.8858 55.7051 12.0309 63.2578 3.97433C70.8105 -4.08226 80.2989 -10.0726 90.8203 -13.427C95.0532 -0.429317 98.7644 23.6261 79.2666 48.4745M44.2601 54.5894L20.3669 62.3704C20.3669 62.3704 18.2799 47.0354 23.6994 40.1437C29.7601 32.4618 47.6704 32.6016 47.6704 32.6016M29.7591 83.0958C24.5519 91.4511 27.9828 110.101 27.9828 110.101C27.9828 110.101 45.0767 101.892 48.7635 92.7629C50.8492 87.644 48.7939 81.4952 43.8049 78.9973C41.3702 77.8294 38.5899 77.6018 35.9976 78.3582C33.4053 79.1147 31.1837 80.8018 29.7591 83.0958Z" stroke="#393552" stroke-width="5" stroke-linecap="round" stroke-linejoin="round"/>
    </g>
    <defs>
        <clipPath id="clip0_333_444">
            <rect width="94.0387" height="94.0387" fill="white" transform="translate(0 18.1194) rotate(-18.0384)"/>
        </clipPath>
    </defs>
</svg>