<svg xmlns="http://www.w3.org/2000/svg" width="83" height="108" viewBox="0 0 83 108" fill="none">
    <g clip-path="url(#clip0_333_1006)">
        <path d="M54.8674 70.9167L41.9696 67.5915C40.9291 67.3344 39.8313 67.4959 38.9119 68.0416C37.9924 68.5873 37.3247 69.4735 37.052 70.51L34.0755 82.3015C33.8235 83.3434 33.9896 84.4445 34.538 85.3686C35.0864 86.2927 35.9735 86.966 37.0087 87.244L49.9066 90.5691M47.0718 101.799L60.6787 47.8953M46.8873 37.4623C40.5231 26.7386 44.0133 12.9121 54.6829 6.57992C65.3526 0.247724 79.1613 3.80772 85.5256 14.5314C91.8898 25.2551 88.3996 39.0816 77.73 45.4138C67.0603 51.746 53.2516 48.186 46.8873 37.4623Z" stroke="#393552" stroke-width="5" stroke-linecap="round" stroke-linejoin="round"/>
    </g>
    <defs>
        <clipPath id="clip0_333_1006">
            <rect width="94.0387" height="94.0387" fill="white" transform="translate(0 18.1194) rotate(-18.0384)"/>
        </clipPath>
    </defs>
</svg>