<svg xmlns="http://www.w3.org/2000/svg" width="83" height="108" viewBox="0 0 83 108" fill="none">
    <g clip-path="url(#clip0_333_1098)">
        <path d="M72.7252 67.5226C72.8111 71.5849 71.8426 75.6002 69.9143 79.1768C67.9859 82.7533 65.1635 85.769 61.7224 87.9297C58.2812 90.0904 54.3388 91.3224 50.2797 91.5054C46.2205 91.6884 42.1832 90.8162 38.5616 88.974C34.94 87.1317 31.8576 84.3823 29.6153 80.9938C27.3729 77.6053 26.047 73.6934 25.767 69.6398C25.4869 65.5862 26.2623 61.5292 28.0174 57.8646C29.7726 54.1999 32.4475 51.0527 35.7814 48.7299M63.1653 22.2739L66.8909 21.0606L71.7442 35.9634M40.7715 65.698L43.3913 62.7844L55.0456 73.2636M91.6717 21.2321C95.6923 33.578 88.9433 46.8456 76.5974 50.8662C64.2516 54.8867 50.984 48.1377 46.9634 35.7919C42.9428 23.446 49.6918 10.1784 62.0377 6.15783C74.3836 2.13727 87.6512 8.88627 91.6717 21.2321Z" stroke="#393552" stroke-width="5" stroke-linecap="round" stroke-linejoin="round"/>
    </g>
    <defs>
        <clipPath id="clip0_333_1098">
            <rect width="94.0387" height="94.0387" fill="white" transform="translate(0 18.1194) rotate(-18.0384)"/>
        </clipPath>
    </defs>
</svg>