<svg xmlns="http://www.w3.org/2000/svg" width="83" height="108" viewBox="0 0 83 108" fill="none">
    <g clip-path="url(#clip0_333_233)">
        <path d="M64.7579 28.9408L72.0378 42.9208M79.3176 56.9008L79.3527 56.8825M67.3334 85.3549C65.4695 86.3256 63.2984 86.52 61.2978 85.8954C59.2972 85.2709 57.6309 83.8785 56.6655 82.0246L27.5462 26.1046C26.5808 24.2508 26.3954 22.0873 27.0308 20.0901C27.6662 18.0929 29.0703 16.4255 30.9342 15.4549L59.0462 0.816128C60.1576 0.235088 61.3724 -0.121529 62.6206 -0.233187C63.8688 -0.344845 65.1257 -0.209337 66.3189 0.165532L85.4572 6.14009C86.654 6.50982 87.7645 7.11261 88.7244 7.91364C89.6844 8.71467 90.4748 9.69806 91.0499 10.807L112.889 52.747C113.855 54.6009 114.04 56.7644 113.405 58.7616C112.769 60.7588 111.365 62.4261 109.501 63.3967L67.3334 85.3549Z" stroke="#393552" stroke-width="5" stroke-linecap="round" stroke-linejoin="round"/>
    </g>
    <defs>
        <clipPath id="clip0_333_233">
            <rect width="94.0387" height="94.0387" fill="white" transform="translate(0 18.1194) rotate(-18.0384)"/>
        </clipPath>
    </defs>
</svg>