<svg xmlns="http://www.w3.org/2000/svg" width="83" height="108" viewBox="0 0 83 108" fill="none">
    <g clip-path="url(#clip0_333_1086)">
        <path d="M22.1292 32.3823L90.8744 61.3896M90.2867 42.2873C96.3532 60.9158 86.3466 74.4766 72.607 84.9262C71.8849 85.4655 70.9991 85.7395 70.0986 85.7019C52.8153 85.3964 36.7421 80.3287 30.6756 61.7003L22.1824 35.6204C21.8606 34.6323 21.9445 33.5568 22.4157 32.6306C22.8869 31.7043 23.7067 31.0032 24.6948 30.6814C32.1462 28.2548 40.0044 20.7507 44.6429 12.9765C45.2126 12.0451 46.096 11.3476 47.1342 11.0095C48.1723 10.6714 49.2971 10.7149 50.306 11.1322C58.6823 14.7092 69.4031 16.1217 76.8545 13.6951C77.8426 13.3733 78.9181 13.4572 79.8443 13.9283C80.7706 14.3995 81.4717 15.2193 81.7935 16.2074L90.2867 42.2873Z" stroke="#393552" stroke-width="5" stroke-linecap="round" stroke-linejoin="round"/>
    </g>
    <defs>
        <clipPath id="clip0_333_1086">
            <rect width="94.0387" height="94.0387" fill="white" transform="translate(0 18.1194) rotate(-18.0384)"/>
        </clipPath>
    </defs>
</svg>