<svg width="39" height="39" viewBox="0 0 39 39" fill="none" xmlns="http://www.w3.org/2000/svg">
<path d="M17.5542 16.3892L11.1708 5.3301M17.5542 21.9108L11.1708 32.9699M19.15 35.1083V31.9167M19.15 31.9167C26.2008 31.9167 31.9167 26.2008 31.9167 19.15C31.9167 12.0992 26.2008 6.38335 19.15 6.38335M19.15 31.9167C12.0991 31.9167 6.38332 26.2008 6.38332 19.15M19.15 3.19168V6.38335M19.15 6.38335C12.0991 6.38335 6.38332 12.0992 6.38332 19.15M22.3417 19.15H35.1083M22.3417 19.15C22.3417 20.9127 20.9127 22.3417 19.15 22.3417C17.3873 22.3417 15.9583 20.9127 15.9583 19.15C15.9583 17.3873 17.3873 15.9583 19.15 15.9583C20.9127 15.9583 22.3417 17.3873 22.3417 19.15ZM27.1292 32.9699L25.5333 30.2091M27.1292 5.3301L25.5333 8.09089M3.19165 19.15H6.38332M32.9699 27.1292L30.2091 25.5333M32.9699 11.1708L30.2091 12.7667M5.33007 27.1292L8.09086 25.5333M5.33007 11.1708L8.09086 12.7667" stroke="#9CCFD8" stroke-width="2" stroke-linecap="round" stroke-linejoin="round"/>
</svg>
