<svg width="39" height="39" viewBox="0 0 39 39" fill="none" xmlns="http://www.w3.org/2000/svg">
<path d="M31.9166 20.7458C31.9166 28.725 26.3312 32.7146 19.6926 35.0285C19.3449 35.1463 18.9673 35.1407 18.6233 35.0126C11.9687 32.7146 6.3833 28.725 6.3833 20.7458V9.575C6.3833 9.15176 6.55143 8.74585 6.85071 8.44658C7.14999 8.1473 7.55589 7.97917 7.97913 7.97917C11.1708 7.97917 15.1604 6.06417 17.9371 3.6385C18.2752 3.34965 18.7053 3.19095 19.15 3.19095C19.5946 3.19095 20.0247 3.34965 20.3628 3.6385C23.1555 6.08012 27.1291 7.97917 30.3208 7.97917C30.744 7.97917 31.15 8.1473 31.4492 8.44658C31.7485 8.74585 31.9166 9.15176 31.9166 9.575V20.7458Z" stroke="#9CCFD8" stroke-width="2" stroke-linecap="round" stroke-linejoin="round"/>
</svg>
